<?xml version="1.0" standalone="no"?>
<!DOCTYPE svg PUBLIC "-//W3C//DTD SVG 20010904//EN"
 "http://www.w3.org/TR/2001/REC-SVG-20010904/DTD/svg10.dtd">
<svg version="1.0" xmlns="http://www.w3.org/2000/svg"
 width="260.000000pt" height="260.000000pt" viewBox="0 0 260.000000 260.000000"
 preserveAspectRatio="xMidYMid meet">
<metadata>
Created by potrace 1.11, written by Peter Selinger 2001-2013
</metadata>
<g transform="translate(0.000000,260.000000) scale(0.100000,-0.100000)"
fill="#000000" stroke="none">
<path d="M1145 2579 c-116 -16 -141 -21 -219 -44 -418 -124 -730 -429 -867
-849 -80 -242 -77 -544 6 -791 83 -248 251 -479 460 -633 146 -108 368 -203
531 -228 21 -3 55 -9 74 -13 41 -9 307 -6 365 3 85 15 204 46 268 70 392 147
693 481 797 884 29 111 31 131 35 292 7 280 -59 513 -209 739 -192 289 -478
481 -819 552 -108 22 -328 32 -422 18z m275 -83 c149 -13 284 -53 424 -124
388 -199 642 -605 649 -1037 1 -100 -6 -209 -17 -260 -40 -185 -90 -305 -187
-450 -25 -38 -68 -95 -95 -125 -45 -50 -63 -67 -143 -138 -41 -36 -150 -107
-216 -140 -70 -35 -216 -88 -266 -96 -36 -6 -71 -12 -116 -21 -33 -7 -257 -7
-293 -1 -14 2 -47 7 -75 11 -75 10 -247 70 -337 117 -215 111 -407 307 -519
529 -40 79 -94 248 -109 339 -14 82 -18 275 -7 357 48 365 266 695 585 884 45
27 86 49 90 49 4 0 19 6 33 14 23 12 146 56 174 62 60 14 132 26 185 30 36 3
66 7 67 7 3 3 109 -1 173 -7z"/>
<path d="M1200 2413 c-175 -16 -364 -84 -520 -187 -89 -58 -238 -206 -297
-293 -84 -125 -158 -310 -182 -458 -10 -62 -8 -320 3 -365 3 -14 9 -38 11 -53
10 -55 57 -182 95 -257 145 -286 412 -499 726 -577 92 -23 131 -27 254 -27
166 -1 219 6 344 44 209 65 421 213 554 386 152 199 234 457 226 716 -16 512
-384 948 -890 1053 -74 15 -249 25 -324 18z"/>
</g>
</svg>
