<?xml version="1.0" encoding="utf-8"?>
<!-- Generator: Adobe Illustrator 16.0.4, SVG Export Plug-In . SVG Version: 6.00 Build 0)  -->
<!DOCTYPE svg PUBLIC "-//W3C//DTD SVG 1.1//EN" "http://www.w3.org/Graphics/SVG/1.1/DTD/svg11.dtd">
<svg version="1.1" id="Ebene_1" xmlns="http://www.w3.org/2000/svg" xmlns:xlink="http://www.w3.org/1999/xlink" x="0px" y="0px"
	 width="669px" height="465px" viewBox="0 0 669 465" enable-background="new 0 0 669 465" xml:space="preserve">
<g id="pqTJAN_1_">
	<g>
		<path fill="#FFFFFF" d="M493,465c-105.666,0-211.333,0-317,0c-0.508-0.324-0.999-0.902-1.525-0.936
			c-16.628-1.055-33.286-1.754-49.884-3.158c-14.359-1.213-28.645-3.277-42.975-4.855c-17.542-1.934-32.464-9.668-45.541-21.033
			c-14.42-12.531-23.414-28.575-26.928-47.221c-3.053-16.201-4.823-32.643-7.142-48.98C1.305,333.881,0.667,328.939,0,324
			c0-61.334,0-122.667,0-184c0.359-3.668,0.612-7.351,1.097-11.002c1.589-11.986,3.196-23.971,4.921-35.938
			c2.142-14.856,5.046-29.41,12.817-42.688c9.801-16.747,23.424-28.798,41.005-36.893c11.516-5.303,23.833-6.812,36.026-8.259
			c17.953-2.129,36.069-2.868,54.112-4.251C151.005,0.89,151.994,0.333,153,0c118.667,0,237.334,0,356,0
			c1.504,0.334,2.997,0.882,4.516,0.966c7.583,0.418,15.211,0.343,22.752,1.131c16.755,1.751,33.606,3.152,50.146,6.186
			c10.345,1.897,20.568,5.693,30.164,10.116c10.367,4.778,17.936,13.127,25.291,22.135c6.598,8.081,11.068,16.741,14.003,26.205
			c8.091,26.087,10.077,53.194,12.149,80.249c0.154,2.017,0.645,4.009,0.979,6.012c0,52,0,104,0,156
			c-0.665,5.436-1.326,10.873-1.995,16.309c-2.339,19.002-3.989,38.125-7.291,56.958c-1.856,10.59-5.214,21.333-10.12,30.862
			c-5.7,11.068-14.209,20.277-24.7,27.846c-12.135,8.752-25.379,13.975-39.847,15.869c-17.401,2.275-34.936,3.564-52.428,5.104
			c-4.652,0.41-9.371-0.006-14.039,0.271c-7.695,0.459-15.377,1.15-23.057,1.818C494.66,464.112,493.84,464.667,493,465z
			 M267.272,332.294c58.148-33.405,115.826-66.538,174.229-100.089c-58.37-33.663-116.155-66.988-174.229-100.48
			C267.272,198.899,267.272,265.291,267.272,332.294z"/>
		<path fill-rule="evenodd" clip-rule="evenodd" fill="#FFFFFF" d="M493,465c0.84-0.334,1.66-0.889,2.523-0.963
			c7.68-0.668,15.361-1.359,23.057-1.818c4.668-0.277,9.387,0.139,14.039-0.271c17.492-1.539,35.026-2.828,52.428-5.104
			c14.468-1.895,27.712-7.117,39.847-15.869c10.491-7.568,19-16.777,24.7-27.846c4.906-9.529,8.264-20.272,10.12-30.862
			c3.302-18.833,4.952-37.956,7.291-56.958c0.669-5.436,1.33-10.873,1.995-16.309c0,52,0,104,0,156C610.333,465,551.666,465,493,465
			z"/>
		<path fill-rule="evenodd" clip-rule="evenodd" fill="#FFFFFF" d="M669,153c-0.334-2.003-0.824-3.995-0.979-6.012
			c-2.072-27.054-4.059-54.162-12.149-80.249c-2.935-9.464-7.405-18.125-14.003-26.205c-7.355-9.008-14.924-17.357-25.291-22.135
			c-9.596-4.422-19.819-8.219-30.164-10.116c-16.54-3.033-33.392-4.435-50.146-6.186c-7.541-0.788-15.169-0.713-22.752-1.131
			C511.997,0.882,510.504,0.334,509,0c53.334,0,106.667,0,160,0C669,51,669,102,669,153z"/>
		<path fill-rule="evenodd" clip-rule="evenodd" fill="#FFFFFF" d="M0,324c0.667,4.938,1.305,9.881,2.005,14.816
			c2.318,16.338,4.089,32.779,7.142,48.98c3.514,18.646,12.508,34.689,26.928,47.221c13.076,11.365,27.998,19.1,45.541,21.033
			c14.33,1.578,28.616,3.643,42.975,4.855c16.598,1.404,33.255,2.104,49.884,3.158c0.526,0.033,1.018,0.611,1.525,0.936
			c-58.667,0-117.333,0-176,0C0,418,0,371,0,324z"/>
		<path fill-rule="evenodd" clip-rule="evenodd" fill="#FFFFFF" d="M153,0c-1.006,0.333-1.995,0.89-3.021,0.968
			c-18.043,1.383-36.16,2.122-54.112,4.251C83.673,6.666,71.356,8.175,59.84,13.478c-17.582,8.095-31.205,20.146-41.005,36.893
			C11.064,63.649,8.16,78.203,6.018,93.06c-1.726,11.967-3.332,23.952-4.921,35.938C0.612,132.649,0.359,136.332,0,140
			C0,93.333,0,46.667,0,0C51,0,102,0,153,0z"/>
		<path fill-rule="evenodd" clip-rule="evenodd" fill="#FFFFFF" d="M267.272,332.294c0-67.004,0-133.396,0-200.569
			c58.074,33.492,115.859,66.817,174.229,100.48C383.099,265.756,325.421,298.889,267.272,332.294z"/>
	</g>
</g>
</svg>
