<?xml version="1.0" encoding="utf-8"?>
<!-- Generator: Adobe Illustrator 24.1.0, SVG Export Plug-In . SVG Version: 6.00 Build 0)  -->
<svg version="1.1" id="Ebene_1" xmlns="http://www.w3.org/2000/svg" xmlns:xlink="http://www.w3.org/1999/xlink" x="0px" y="0px"
	 viewBox="0 0 304.3 137.2" style="enable-background:new 0 0 304.3 137.2;" xml:space="preserve">
<style type="text/css">
	.st0{fill:#FFFFFF;}
</style>
<defs>
<filter  filterUnits="objectBoundingBox" id="schatten">
    <feGaussianBlur in="SourceAlpha" result="blur-out" stdDeviation="1" />
    <feOffset in="blur-out" result="the-shadow" dx="2" dy="2"/> 
    <feColorMatrix in="the-shadow" result="color-out" type="matrix" values="0 0 0 0 0 0 0 0 0 0 0 0 0 0 0 0 0 0 .5 0"/>
    <feBlend in="SourceGraphic" in2="color-out" mode="normal"/>
</filter>
</defs>
<g filter="url(#schatten)">
	<path class="st0" d="M34.3,9.3H20.8v47h-7.3v-47H0V3.8h34.3V9.3z"/>
	<path class="st0" d="M47.5,7h-7.3V0h7.3V7z M47.5,56.4h-7.3V17.3h7.3V56.4z"/>
	<path class="st0" d="M63.1,17.3l0.4,5.3c1.1-1.9,2.4-3.4,4-4.5c1.6-1,3.6-1.6,5.7-1.6c2.1,0,4,0.6,5.5,1.8c1.5,1.2,2.7,3,3.5,5.4
		c1-2.3,2.4-4,4-5.3c1.7-1.3,3.7-1.9,6-1.9c3.3,0,5.9,1.4,7.9,4.1c1.9,2.7,2.9,6.9,2.9,12.5v23.2h-7.3V33.1c0-4-0.5-6.8-1.5-8.4
		c-1-1.6-2.4-2.4-4.4-2.4c-1.7,0-3.1,0.6-4.2,1.9c-1.1,1.3-1.9,2.9-2.4,5c0-0.2,0,0.1,0,0.9c0,0.8,0.1,1.4,0.1,1.8v24.5h-7.3V33.1
		c0-3.9-0.5-6.7-1.5-8.3c-1-1.7-2.5-2.5-4.4-2.5c-1.5,0-2.9,0.4-3.9,1.3c-1.1,0.9-1.9,2-2.5,3.6v29.3h-7.3V17.3H63.1z"/>
	<path class="st0" d="M125.6,57.1c-4.6,0-8.4-1.6-11.2-4.8c-2.8-3.2-4.2-7.4-4.2-12.4v-5.7c0-5.1,1.4-9.3,4.1-12.6s6.2-5,10.4-5
		c4.4,0,7.8,1.5,10.2,4.5c2.4,3,3.6,7.1,3.6,12.2v5.1h-21v1.6c0,3.4,0.7,6.2,2.2,8.4c1.5,2.2,3.6,3.3,6.3,3.3c2,0,3.8-0.3,5.2-1
		c1.4-0.6,2.8-1.6,4.1-2.8l2.3,4.6c-1.2,1.4-2.9,2.5-4.9,3.4C130.7,56.7,128.3,57.1,125.6,57.1z M124.8,22.1c-2.1,0-3.8,1-5.1,3.1
		s-2,4.7-2.1,7.9h13.8v-1.5c0-2.8-0.6-5.1-1.7-6.8C128.6,23,126.9,22.1,124.8,22.1z"/>
</g>
<g filter="url(#schatten)">
	<path class="st0" d="M165.5,26v6h3.8v3.3h-3.8v14.5c0,1.3,0.2,2.2,0.6,2.7c0.4,0.5,0.9,0.8,1.5,0.8c0.4,0,0.7,0,1-0.1
		c0.3,0,0.7-0.1,1.1-0.2l0.5,3.1c-0.5,0.2-1.1,0.4-1.7,0.5c-0.6,0.1-1.3,0.2-2,0.2c-1.7,0-3.1-0.6-4-1.7c-1-1.1-1.4-2.9-1.4-5.4
		V35.3h-3.2v-3.3h3.2v-6H165.5z"/>
	<path class="st0" d="M172.4,42.7c0-3.2,0.8-5.9,2.5-8c1.7-2.1,4-3.1,6.9-3.1c2.9,0,5.2,1,6.9,3.1c1.7,2.1,2.5,4.7,2.5,8v3.1
		c0,3.2-0.8,5.9-2.5,8c-1.7,2.1-4,3.1-6.9,3.1c-2.9,0-5.3-1-7-3.1c-1.7-2.1-2.5-4.7-2.5-8L172.4,42.7L172.4,42.7z M177,45.8
		c0,2.2,0.4,4,1.2,5.5c0.8,1.4,2,2.1,3.7,2.1c1.6,0,2.8-0.7,3.6-2.1c0.8-1.4,1.2-3.2,1.2-5.5v-3.1c0-2.2-0.4-4-1.2-5.4
		s-2-2.2-3.7-2.2c-1.6,0-2.9,0.7-3.7,2.1c-0.8,1.4-1.2,3.2-1.2,5.4L177,45.8L177,45.8z"/>
	<path class="st0" d="M209.9,32.1l0.2,3.3c0.7-1.2,1.5-2.1,2.5-2.8c1-0.6,2.2-1,3.6-1c1.3,0,2.5,0.4,3.4,1.1c1,0.7,1.7,1.9,2.2,3.4
		c0.6-1.4,1.5-2.5,2.5-3.3s2.3-1.2,3.7-1.2c2.1,0,3.7,0.9,4.9,2.5c1.2,1.7,1.8,4.3,1.8,7.8v14.4h-4.6V41.9c0-2.5-0.3-4.2-0.9-5.2
		c-0.6-1-1.5-1.5-2.7-1.5c-1,0-1.9,0.4-2.6,1.2c-0.7,0.8-1.2,1.8-1.5,3.1c0-0.1,0,0.1,0,0.6c0,0.5,0,0.9,0,1.1v15.2h-4.5V41.9
		c0-2.4-0.3-4.1-0.9-5.2c-0.6-1-1.5-1.6-2.7-1.6c-1,0-1.8,0.3-2.4,0.8c-0.7,0.5-1.2,1.3-1.6,2.2v18.2h-4.5V32.1H209.9z"/>
	<path class="st0" d="M252.3,56.4c-0.2-0.6-0.3-1.1-0.4-1.6c-0.1-0.5-0.2-1.1-0.2-1.6c-0.7,1.1-1.5,2-2.5,2.7c-1,0.7-2.1,1-3.4,1
		c-2.1,0-3.7-0.6-4.8-1.9c-1.2-1.3-1.7-3-1.7-5.2c0-2.3,0.8-4.1,2.4-5.5c1.6-1.3,3.8-2,6.7-2h3.4v-2.5c0-1.5-0.3-2.6-1-3.4
		c-0.7-0.8-1.6-1.2-2.8-1.2c-1.1,0-2,0.4-2.6,1.1s-1,1.7-1,2.8l-4.3,0l-0.1-0.1c-0.1-1.9,0.7-3.5,2.2-5s3.6-2.2,6.1-2.2
		c2.4,0,4.3,0.7,5.8,2.1c1.5,1.4,2.2,3.4,2.2,6.1v11.3c0,0.9,0.1,1.9,0.2,2.7c0.1,0.9,0.3,1.7,0.5,2.6L252.3,56.4L252.3,56.4z
		 M246.8,53.4c1.1,0,2-0.3,2.9-0.9c0.9-0.6,1.5-1.4,1.9-2.4v-5h-3.5c-1.4,0-2.5,0.4-3.2,1.3s-1.2,2-1.2,3.3c0,1.1,0.3,2,0.8,2.7
		C245.1,53,245.8,53.4,246.8,53.4z"/>
	<path class="st0" d="M267.9,45.2H266v11.2h-4.5v-35h4.5v20.4h1.9l5.4-9.7h5.3l-7.1,11l8.1,13.3h-5.3L267.9,45.2z"/>
	<path class="st0" d="M290.4,56.8c-2.9,0-5.2-1-6.9-3s-2.6-4.6-2.6-7.7v-3.5c0-3.2,0.9-5.8,2.5-7.9c1.7-2.1,3.9-3.1,6.5-3.1
		c2.8,0,4.9,0.9,6.4,2.8c1.5,1.9,2.2,4.4,2.2,7.6v3.1h-13.1v1c0,2.1,0.5,3.8,1.4,5.2c0.9,1.4,2.2,2.1,3.9,2.1c1.3,0,2.3-0.2,3.2-0.6
		s1.8-1,2.6-1.7l1.4,2.8c-0.8,0.9-1.8,1.6-3.1,2.1C293.6,56.6,292.1,56.8,290.4,56.8z M289.9,35.1c-1.3,0-2.4,0.6-3.2,1.9
		c-0.8,1.3-1.2,2.9-1.3,4.9h8.6V41c0-1.7-0.3-3.2-1-4.3C292.3,35.6,291.2,35.1,289.9,35.1z"/>
</g>
<g filter="url(#schatten)">
	<path class="st0" d="M13.7,121.4c-0.2-0.6-0.3-1.1-0.4-1.6c-0.1-0.5-0.2-1.1-0.2-1.6c-0.7,1.1-1.5,2-2.5,2.7c-1,0.7-2.1,1-3.4,1
		c-2.1,0-3.7-0.6-4.8-1.9c-1.2-1.3-1.7-3-1.7-5.2c0-2.3,0.8-4.1,2.4-5.5c1.6-1.3,3.8-2,6.7-2h3.4v-2.5c0-1.5-0.3-2.6-1-3.4
		c-0.7-0.8-1.6-1.2-2.8-1.2c-1.1,0-2,0.4-2.6,1.1c-0.7,0.7-1,1.7-1,2.8l-4.3,0l-0.1-0.1c-0.1-1.9,0.7-3.5,2.2-5s3.6-2.2,6.1-2.2
		c2.4,0,4.3,0.7,5.8,2.1c1.5,1.4,2.2,3.4,2.2,6.1v11.3c0,0.9,0.1,1.9,0.2,2.7c0.1,0.9,0.3,1.7,0.5,2.6L13.7,121.4L13.7,121.4z
		 M8.2,118.4c1.1,0,2-0.3,2.9-0.9s1.5-1.4,1.9-2.4v-5H9.6c-1.4,0-2.5,0.4-3.2,1.3s-1.2,2-1.2,3.3c0,1.1,0.3,2,0.8,2.7
		C6.5,118,7.3,118.4,8.2,118.4z"/>
</g>
<g filter="url(#schatten)">
	<path class="st0" d="M66.4,105.4l0.1,0.2c0,5.3-1.4,9.3-4.2,12.2c-2.8,2.9-6.7,4.3-11.7,4.3c-5.2,0-9.3-1.7-12.4-5.2
		s-4.6-8.3-4.6-14.5V87.8c0-6.2,1.5-11.1,4.6-14.6c3-3.5,7.1-5.2,12.2-5.2c5.2,0,9.1,1.4,11.9,4.2c2.8,2.8,4.2,6.9,4.3,12.4
		l-0.1,0.2h-6.9c-0.1-3.9-0.8-6.7-2.3-8.5s-3.7-2.7-6.8-2.7c-3,0-5.3,1.2-7,3.7c-1.7,2.4-2.5,5.9-2.5,10.4v14.7
		c0,4.6,0.8,8.1,2.5,10.5c1.7,2.4,4.1,3.7,7.2,3.7c3,0,5.3-0.9,6.7-2.7c1.4-1.8,2.1-4.6,2.2-8.5L66.4,105.4L66.4,105.4z"/>
	<path class="st0" d="M80.8,87.5c1.1-1.9,2.4-3.3,4-4.4c1.6-1,3.4-1.6,5.3-1.6c3.5,0,6.3,1.3,8.2,3.9s2.9,6.6,2.9,12v23.9h-7.3v-24
		c0-3.6-0.5-6.2-1.6-7.8c-1-1.6-2.6-2.4-4.7-2.4c-1.5,0-2.8,0.4-4,1.3c-1.2,0.9-2.1,2-2.9,3.5v29.3h-7.3V65h7.3V87.5z"/>
	<path class="st0" d="M129.4,121.4c-0.3-0.9-0.5-1.8-0.6-2.6c-0.2-0.9-0.3-1.7-0.3-2.6c-1.1,1.8-2.4,3.2-4.1,4.3
		c-1.6,1.1-3.5,1.7-5.5,1.7c-3.3,0-5.9-1-7.8-3.1c-1.9-2.1-2.8-4.9-2.8-8.4c0-3.7,1.3-6.7,3.8-8.8c2.5-2.1,6.1-3.2,10.7-3.2h5.5v-4
		c0-2.4-0.5-4.2-1.6-5.5c-1.1-1.3-2.6-2-4.5-2c-1.8,0-3.2,0.6-4.2,1.8c-1.1,1.2-1.6,2.7-1.6,4.5l-7,0l-0.1-0.2
		c-0.1-3,1.1-5.7,3.6-8.1s5.8-3.5,9.8-3.5c3.9,0,7,1.1,9.4,3.4c2.4,2.3,3.6,5.5,3.6,9.7v18.1c0,1.5,0.1,3,0.3,4.4
		c0.2,1.4,0.5,2.8,0.9,4.1L129.4,121.4L129.4,121.4z M120.6,116.6c1.7,0,3.3-0.5,4.7-1.5s2.4-2.3,3.1-3.8v-8h-5.6
		c-2.2,0-4,0.7-5.2,2.2c-1.2,1.4-1.9,3.2-1.9,5.3c0,1.8,0.4,3.2,1.3,4.3C117.8,116,119,116.6,120.6,116.6z"/>
	<path class="st0" d="M150.7,82.3l0.4,5.8c1.1-2,2.5-3.6,4.1-4.8c1.7-1.1,3.5-1.7,5.6-1.7c3.4,0,6.1,1.3,8,3.8s2.9,6.5,2.9,11.8
		v24.2h-7.3V97.2c0-3.6-0.5-6.2-1.6-7.7c-1-1.5-2.6-2.2-4.7-2.2c-1.5,0-2.8,0.5-4,1.4c-1.2,0.9-2.1,2.2-2.8,3.8v28.9h-7.3V82.3
		H150.7z"/>
	<path class="st0" d="M178.6,100.3c0-5.6,1.1-10.1,3.5-13.6c2.3-3.4,5.5-5.1,9.6-5.1c2,0,3.7,0.5,5.2,1.4c1.5,0.9,2.8,2.3,3.8,4
		l0.5-4.7h6.3v38.9c0,5-1.3,8.9-4,11.7s-6.4,4.2-11.1,4.2c-1.6,0-3.4-0.3-5.3-0.8s-3.5-1.2-5-2.1l1.6-5.5c1.2,0.7,2.6,1.3,4,1.8
		c1.5,0.4,3,0.6,4.6,0.6c2.7,0,4.7-0.9,5.9-2.6c1.3-1.7,1.9-4.2,1.9-7.5v-3.5c-1,1.5-2.3,2.6-3.7,3.4c-1.4,0.8-3.1,1.1-4.9,1.1
		c-4.1,0-7.3-1.6-9.5-4.7c-2.3-3.1-3.4-7.2-3.4-12.4L178.6,100.3L178.6,100.3z M185.9,105.1c0,3.5,0.6,6.2,1.8,8.3
		c1.2,2.1,3.1,3.1,5.7,3.1c1.6,0,2.9-0.4,4.1-1.2c1.1-0.8,2-2,2.7-3.5V92.3c-0.7-1.5-1.6-2.8-2.7-3.7c-1.1-0.9-2.4-1.4-4-1.4
		c-2.6,0-4.5,1.2-5.7,3.6c-1.2,2.4-1.9,5.5-1.9,9.4L185.9,105.1L185.9,105.1z"/>
	<path class="st0" d="M230,122.1c-4.6,0-8.4-1.6-11.2-4.8c-2.8-3.2-4.2-7.4-4.2-12.4v-5.7c0-5.1,1.4-9.3,4.1-12.6
		c2.7-3.3,6.2-5,10.4-5c4.4,0,7.8,1.5,10.2,4.5c2.4,3,3.6,7.1,3.6,12.2v5.1h-21v1.6c0,3.4,0.7,6.2,2.2,8.4c1.5,2.2,3.6,3.3,6.3,3.3
		c2,0,3.8-0.3,5.2-1c1.4-0.6,2.8-1.6,4.1-2.8l2.3,4.6c-1.2,1.4-2.9,2.5-4.9,3.4S232.7,122.1,230,122.1z M229.2,87.1
		c-2.1,0-3.8,1-5.1,3.1s-2,4.7-2.1,7.9h13.8v-1.5c0-2.8-0.6-5.1-1.7-6.8S231.3,87.1,229.2,87.1z"/>
	<path class="st0" d="M257.6,121.4h-7.4V114h7.4V121.4z"/>
</g>
</svg>
